<svg height="100" width="100" fill="#000" xmlns="http://www.w3.org/2000/svg"><path d="M63.107 28.713c5.14-6.821 11.94-12.816 19.665-17.335 1.711-1.001 5.342-2.818 7.064-3.535 1.2-.5 1.518-.689 1.64-1.255.223-1.036.257-1.195-.038-1.522-.284-.316-.284-.316-10.828-.316-8.365 0-10.099.015-10.503.06l-.001-.018c-.32.023-10.061.076-21.712.118-39.574.143-39.574.143-39.831.487-.187.25-.251.485-.195.719.099.416.563.783 1.711 1.354.569.284 1.418.769 1.893 1.082.489.322 1.126.705 1.421.854 2.754 1.386 11.996 7.542 15.95 10.623 3.25 2.532 3.501 2.745 6.73 5.696 4.894 4.471 7.228 7.082 9.606 10.743 2.566 3.951 4.006 7.172 5.138 11.488l.562 2.113.161 19.347-.488.108c-2.463.544-4.401 2.532-4.938 5.065-.341 1.605-.082 3.363.659 4.81-.447-.471-.861-.957-1.069-1.277-.835-1.29-1.393-3.157-1.705-5.709-.146-1.194-.179-3.851-.064-5.075.075-.795.003-1.248-.24-1.513-.15-.163-.378-.231-.626-.244-1.005.008-1.079.669-1.161 2.758-.153 3.899.476 7.555 1.727 10.031.244.484.917 1.428 1.453 2.062l-.333-.125c-2.851-1.104-5.178-3.125-6.073-5.273-.112-.27-.302-.641-.432-.797a.76.76 0 00-.865-.239c-.38.138-.635.527-.635.969 0 .556.649 1.835 1.256 2.681.595.83 2.012 2.229 2.808 2.772.912.622 2.705 1.524 3.836 1.931l.4.145c-.179.052-.393.112-.638.179-.785.217-1.666.527-2.005.708-1.04.553-1.94 1.505-3.11 3.286-1.29 1.964-1.5 2.348-1.5 2.743 0 .343.214.64.559.774.359.14.751.058.997-.21.125-.138.769-1.09 1.309-1.917 1.74-2.659 2.082-2.929 4.568-3.601 1.262-.341 1.978-.492 2.335-.545a5.211 5.211 0 01-.075.151c-.685 1.348-.898 2.763-1.088 7.208-.137 3.217-.138 3.757.632 3.949.072.018.16.029.25.029a.816.816 0 00.418-.1c.526-.323.596-.841.596-2.727 0-2.274.181-4.98.403-6.031.16-.756.529-1.625.813-2.056v.018c.012 1.163.579 2.007 1.687 2.51 1.073.487 2.293.274 3.04-.528.356-.383.702-1.14.788-1.685.602.782.907 2.758.986 6.358.069 3.114.081 3.675.977 3.675.193 0 .474-.025.683-.247.395-.416.417-1.341.283-3.912-.139-2.682-.373-4.517-.714-5.609l-.079-.251c.879.236 2.619.907 3.457 1.339 1.658.855 3.226 2.714 3.226 3.825 0 .449.284.868.707 1.043.342.141.689.083.929-.157.4-.4.383-.848.198-1.641-.35-1.504-1.286-2.792-2.945-4.052-.591-.448-2.025-1.147-3.266-1.591l-.209-.076.87-.17c2.073-.401 4.735-1.521 6.061-2.549 1.382-1.073 2.922-2.882 2.922-3.763 0-.434-.252-.784-.642-.894-.433-.121-.899.083-1.158.508-.87 1.432-2.06 2.603-3.348 3.295-1.103.593-3.205 1.356-4.409 1.602-.179.037-.407.083-.624.125 3.019-2.342 4.487-6.908 4.617-14.319.028-1.606.03-1.738-.331-2.034-.437-.357-.897-.352-1.266.015-.27.269-.303.611-.37 2.413-.164 4.366-.701 7.365-1.742 9.724-.162.367-.453.86-.751 1.299.366-1.272.413-2.817.078-3.955-.739-2.512-2.83-4.564-5.204-5.108l-.401-.092-.071-6.444c-.123-10.984-.107-12.272.167-13.781 1.226-6.772 4.582-14.058 9.447-20.514zM26.598 14.995c.263.125 5.803 2.674 12.098 5.566a5933.43 5933.43 0 0112.051 5.546l.289.138.063 1.605c.039.966.096 5.063.128 9.133l.048 6.067-.187-.464c-.958-2.379-2.145-4.667-3.629-6.996-1.391-2.182-1.88-2.854-3.495-4.794-4-4.808-12.729-12.323-19.458-16.754l-.109-.071c1.013.47 1.967.913 2.201 1.024zM39.509 10.6l-.021.004c-.21.038-2.86.608-6.033 1.298-3.265.71-5.668 1.205-5.813 1.226-.258-.064-3.215-1.369-7.206-3.208L14.41 7.142l1.427-.037c1.366-.035 6.659-.074 11.799-.087l9.179-.022 1.379 1.835c.616.821 1.09 1.461 1.315 1.769zm3.323 4.417c-1.627.578-5.918 2.009-6.477 2.167-.504-.19-4.284-1.876-5.703-2.553.802-.221 2.622-.622 4.712-1.078 3.008-.656 5.03-1.089 5.461-1.176.161.165.58.666 1.125 1.385.545.72.78 1.079.882 1.255zm1.291 1.672c.302.37 1.329 1.699 2.643 3.435a278.304 278.304 0 012.148 2.87c-2.245-1-8.548-3.884-9.881-4.526.396-.16 1.19-.436 2.309-.823 1.435-.496 2.482-.852 2.781-.956zm3.109-.106c.595.041 5.05.281 9.93.535 3.516.183 7.201.37 8.579.436-2.464 1.313-11.857 6.163-13.178 6.797-.745-.898-5.025-6.517-5.95-7.798.135.002.332.01.619.03zm21.831-.836c-1.048-.098-10.239-.571-12.154-.669L45 14.467l-1.696-2.239h1.044c.852 0 5.247.076 9.798.168 4.548.093 10.244.206 12.678.25 2.429.045 5.458.113 6.731.151l1.35.041-2.463 1.272c-1.914.99-3.172 1.577-3.379 1.637zM39.357 6.979c3.014-.06 22.853-.162 38.695-.196l8.582-.019-.326.172c-.671.355-2.685 1.396-4.475 2.313l-3.2 1.64-7.438-.15c-4.124-.083-12.397-.24-18.376-.349-6.049-.11-10.447-.224-10.993-.267-.327-.297-1.92-2.34-2.469-3.144zm13.828 19.396c.511-.289 3.605-1.909 7.827-4.086a11037.711 11037.711 0 0010.579-5.461c-6.89 5.877-12.405 12.862-15.999 20.278a54.328 54.328 0 00-2.268 5.433l-.029.08c-.011-1.024-.058-4.754-.109-8.664-.046-3.613-.078-7.009-.001-7.58zm-1.581 54.618c-1.465-.498-2.448-1.332-3.094-2.626a5.075 5.075 0 01-.188-4.149c.493-1.23 1.425-2.145 2.624-2.576.404-.146.917-.217 1.443-.217.583 0 1.183.088 1.667.264 2.225.807 3.703 3.322 3.295 5.606-.389 2.172-1.908 3.616-4.064 3.862-.84.095-.951.085-1.683-.164zm-.208 2.992c.009-.41.019-.833.097-.9.025-.021.085-.03.168-.03.172 0 .445.037.712.074.399.055.421.114.445.177.052.137.183.375.293.431.059.104.052.607-.109.996-.108.262-.294.435-.524.488-.254.058-.547-.037-.801-.262-.296-.264-.296-.264-.281-.974zm4.796-5.96c-.164.686-.371.942-.761.942-.431 0-.582-.372-.405-1 .353-1.256-.119-2.863-1.014-3.453-.512-.337-.646-.705-.361-.99.36-.36 1.221-.012 1.779.721.705.923 1.043 2.605.762 3.78z"/></svg>
